<svg width="17" height="11" viewBox="0 0 17 11" fill="none" xmlns="http://www.w3.org/2000/svg">
<path d="M1.96353 0.0742188C1.73229 0.0742188 1.52004 0.144204 1.33856 0.259404L8.29906 6.19151C8.61769 6.46338 9.04713 6.46334 9.36519 6.19151L16.3134 0.259404C16.132 0.144204 15.9197 0.0742188 15.6885 0.0742188H1.96353ZM0.854518 0.870503C0.812559 0.992577 0.787109 1.12261 0.787109 1.2594V9.16064C0.787109 9.39864 0.858106 9.61733 0.977062 9.80261L5.95847 5.22855L0.854518 0.870503ZM16.7975 0.870503L11.7058 5.22237L16.6749 9.80261C16.7939 9.61733 16.8649 9.39864 16.8649 9.16064V1.2594C16.8649 1.12261 16.8394 0.992577 16.7975 0.870503ZM11.1053 5.74089L9.86762 6.79643C9.26902 7.30807 8.38919 7.30732 7.79051 6.79643L6.55893 5.74707L1.61429 10.2903C1.72493 10.3248 1.84134 10.3458 1.96353 10.3458H15.6885C15.8107 10.3458 15.9271 10.3248 16.0377 10.2903L11.1053 5.74089Z" fill="white"/>
</svg>
